<?xml version="1.0" encoding="UTF-8"?>
<svg id="Layer_2" data-name="Layer 2" xmlns="http://www.w3.org/2000/svg" xmlns:xlink="http://www.w3.org/1999/xlink" viewBox="0 0 78.07 78">
  <defs>
    <style>
      .cls-1 {
        fill: url(#linear-gradient-2);
      }

      .cls-2 {
        fill: url(#linear-gradient);
      }
    </style>
    <linearGradient id="linear-gradient" x1="15.48" y1="31.65" x2="62.6" y2="-15.48" gradientUnits="userSpaceOnUse">
      <stop offset="0" stop-color="#cfff19"/>
      <stop offset=".45" stop-color="#e5ff82"/>
      <stop offset=".54" stop-color="#eaff99"/>
      <stop offset=".66" stop-color="#c9e860"/>
      <stop offset=".78" stop-color="#abd32c"/>
      <stop offset=".87" stop-color="#98c60c"/>
      <stop offset=".92" stop-color="#92c201"/>
    </linearGradient>
    <linearGradient id="linear-gradient-2" x1="8.07" y1="-39.14" x2="66.24" y2="1.59" gradientTransform="translate(78.07 50.38) rotate(-180)" gradientUnits="userSpaceOnUse">
      <stop offset="0" stop-color="#cfff19"/>
      <stop offset=".51" stop-color="#eaff99"/>
      <stop offset=".92" stop-color="#92c201"/>
    </linearGradient>
  </defs>
  <g id="Layer_1-2" data-name="Layer 1">
    <path class="cls-2" d="m67.91,0c0,15.95-12.93,28.88-28.88,28.88S10.16,15.95,10.16,0H0C0,21.56,17.48,39.04,39.04,39.04S78.07,21.56,78.07,0h-10.16Z"/>
    <path class="cls-1" d="m10.16,78c0-15.95,12.93-28.88,28.88-28.88,15.95,0,28.88,12.93,28.88,28.88h10.16c0-21.56-17.48-39.04-39.04-39.04C17.48,38.96,0,56.44,0,78h10.16Z"/>
  </g>
</svg>